<?xml version="1.0" encoding="utf-8"?>
<!-- Generator: Adobe Illustrator 27.0.0, SVG Export Plug-In . SVG Version: 6.00 Build 0)  -->
<svg version="1.1" id="Calque_1" xmlns="http://www.w3.org/2000/svg" xmlns:xlink="http://www.w3.org/1999/xlink" x="0px" y="0px"
	 viewBox="0 0 259 453.78" style="enable-background:new 0 0 259 453.78;" xml:space="preserve">
<style type="text/css">
	.st0{fill:#FFFFFF;}
	.st1{fill:#E1E1E1;}
	.st2{fill:#0E0E0D;}
	.st3{fill:#FF812E;}
</style>
<path class="st0" d="M129.5,194.78c-4.64,0-9.23,0.25-13.75,0.73L81.59,22.07h36.73c0.24,0,0.53-0.01,0.77-0.03
	c0.13-0.01,12.82-0.77,26.39,4.61c17.14,6.8,28.02,20.25,32.32,39.98c3.72,17.07,1.75,30.68-5.88,40.45
	c-9.07,11.63-23.66,14.64-25.92,14.71c-6.08,0-11,4.92-11,11c0,6.08,4.92,11,11,11c8.03,0,29.04-5.5,42.73-22.5
	c15.29-18.99,14.19-42.75,10.57-59.35c-7.53-34.5-29.51-49.55-46.63-56.1C136.1-0.5,120.96-0.09,118,0.07H68.21
	c-3.29,0-6.41,1.47-8.5,4.01c-2.09,2.54-2.93,5.88-2.3,9.11l36.73,186.49C39.87,215.11,0,265.13,0,324.28
	c0,71.41,58.09,129.5,129.5,129.5S259,395.69,259,324.28S200.91,194.78,129.5,194.78z M129.5,431.78
	c-59.28,0-107.5-48.22-107.5-107.5c0-48.47,32.25-89.55,76.42-102.91l20.79,105.54c1.03,5.24,5.63,8.88,10.78,8.88
	c0.7,0,1.42-0.07,2.14-0.21c5.96-1.17,9.84-6.96,8.67-12.92l-20.77-105.45c3.12-0.27,6.28-0.42,9.48-0.42
	c59.28,0,107.5,48.22,107.5,107.5S188.78,431.78,129.5,431.78z"/>
</svg>
