<?xml version="1.0" encoding="utf-8"?>
<!-- Generator: Adobe Illustrator 27.0.0, SVG Export Plug-In . SVG Version: 6.00 Build 0)  -->
<svg version="1.1" id="Calque_1" xmlns="http://www.w3.org/2000/svg" xmlns:xlink="http://www.w3.org/1999/xlink" x="0px" y="0px"
	 viewBox="0 0 645.31 509" style="enable-background:new 0 0 645.31 509;" xml:space="preserve">
<style type="text/css">
	.st0{fill:#FFFFFF;}
	.st1{fill:#E1E1E1;}
	.st2{fill:#0E0E0D;}
	.st3{fill:#FF812E;}
</style>
<g>
	<path class="st0" d="M134.27,252.26c0.61,3.1,3.33,5.24,6.37,5.24c0.42,0,0.84-0.04,1.26-0.12c3.52-0.69,5.81-4.11,5.12-7.63
		l-14.79-75.04c-0.01-0.16-0.03-0.31-0.05-0.47c-0.35-2.21-0.53-4.48-0.53-6.74c0-23.43,19.06-42.49,42.49-42.49
		c20.76,0,38.37,14.82,41.87,35.25c0.01,0.06,0.02,0.12,0.03,0.19l1.12,5.54l17.02,86.38c0.61,3.1,3.33,5.24,6.37,5.24
		c0.42,0,0.84-0.04,1.26-0.12c3.52-0.69,5.81-4.11,5.12-7.63l-17.03-86.41l-1.1-5.47c-4.61-26.64-27.59-45.96-54.67-45.96
		c-20.9,0-39.14,11.62-48.6,28.74L101.53,18.89h49.87c3.59,0,6.5-2.91,6.5-6.5s-2.91-6.5-6.5-6.5H93.62c-1.94,0-3.79,0.87-5.02,2.37
		c-1.24,1.5-1.73,3.48-1.36,5.38L134.27,252.26z"/>
	<path class="st0" d="M424.19,252.38c0.62,3.09,3.33,5.23,6.37,5.23c0.42,0,0.85-0.04,1.28-0.13c3.52-0.7,5.81-4.12,5.1-7.65
		L388.19,5.23c-0.7-3.52-4.12-5.81-7.65-5.1c-3.52,0.7-5.81,4.12-5.1,7.65L424.19,252.38z"/>
	<path class="st0" d="M381.45,192.64l-15.02-75.37c-0.7-3.52-4.12-5.8-7.65-5.1c-3.52,0.7-5.81,4.12-5.1,7.65l15.15,76.01
		c0.31,2.08,0.47,4.2,0.47,6.31c0,23.43-19.06,42.49-42.49,42.49c-20.76,0-38.37-14.82-41.87-35.25c-0.01-0.06-0.02-0.12-0.03-0.19
		l-1.12-5.54l-17.02-86.38c-0.69-3.52-4.11-5.82-7.63-5.12c-3.52,0.69-5.81,4.11-5.12,7.63l17.03,86.41l1.1,5.47
		c4.61,26.63,27.59,45.96,54.67,45.96c30.6,0,55.49-24.89,55.49-55.49c0-2.94-0.23-5.9-0.69-8.78
		C381.56,193.1,381.51,192.87,381.45,192.64z"/>
	<path class="st0" d="M520.31,259c-5.89,0-11.68,0.42-17.35,1.21L466.93,77.29h42.2c0.15,0,0.32-0.01,0.47-0.02
		c2.13-0.15,52.25-3.03,63.41,48.12c4.08,18.71,1.69,33.73-7.1,44.64c-10.49,13.03-26.57,15.97-29.1,15.97c-3.59,0-6.5,2.91-6.5,6.5
		s2.91,6.5,6.5,6.5c4.74,0,25.3-3.53,39.22-20.82c11.38-14.13,14.63-32.82,9.67-55.56c-7.1-32.54-27.76-46.7-43.84-52.86
		c-16.11-6.16-30.69-5.6-32.93-5.47h-49.9c-1.94,0-3.79,0.87-5.02,2.37s-1.73,3.48-1.36,5.38l37.55,190.64
		c-54.42,13.51-94.88,62.78-94.88,121.32c0,68.93,56.08,125,125,125s125-56.07,125-125S589.24,259,520.31,259z M520.31,496
		c-61.76,0-112-50.24-112-112c0-52.23,35.94-96.23,84.4-108.55l21.73,110.31c0.61,3.1,3.33,5.25,6.37,5.25
		c0.42,0,0.84-0.04,1.26-0.12c3.52-0.69,5.82-4.11,5.12-7.63l-21.72-110.26c4.86-0.65,9.81-0.98,14.84-0.98
		c61.76,0,112,50.24,112,112S582.07,496,520.31,496z"/>
	<path class="st0" d="M242.75,293.45c-3.53-0.64-6.92,1.7-7.56,5.23c-4.46,24.44-17.21,47.04-35.91,63.64
		c-19.25,17.08-43.05,26.78-68.82,28.04c-29.86,1.46-58.54-8.81-80.7-28.9c-22.16-20.1-35.17-47.62-36.63-77.5
		c-2.24-45.81,23.21-87.86,64.82-107.14c3.26-1.51,4.68-5.37,3.17-8.63c-1.51-3.26-5.38-4.68-8.63-3.17
		c-22.32,10.34-40.97,26.91-53.94,47.92c-13.28,21.52-19.64,46.3-18.41,71.65c1.63,33.35,16.15,64.07,40.88,86.5
		c23.19,21.03,52.75,32.41,83.83,32.41c2.07,0,4.16-0.05,6.24-0.15c28.35-1.38,55.62-12.5,76.81-31.3
		c20.87-18.51,35.1-43.74,40.07-71.03C248.63,297.48,246.29,294.1,242.75,293.45z"/>
</g>
</svg>
