<?xml version="1.0" encoding="utf-8"?>
<!-- Generator: Adobe Illustrator 27.0.0, SVG Export Plug-In . SVG Version: 6.00 Build 0)  -->
<svg version="1.1" id="Calque_1" xmlns="http://www.w3.org/2000/svg" xmlns:xlink="http://www.w3.org/1999/xlink" x="0px" y="0px"
	 viewBox="0 0 654.31 518" style="enable-background:new 0 0 654.31 518;" xml:space="preserve">
<style type="text/css">
	.st0{fill:#FFFFFF;}
	.st1{fill:#E1E1E1;}
	.st2{fill:#0E0E0D;}
	.st3{fill:#FF812E;}
</style>
<g>
	<path class="st1" d="M134.35,257.63c1.03,5.24,5.63,8.88,10.78,8.88c0.71,0,1.42-0.07,2.14-0.21c5.96-1.17,9.84-6.96,8.67-12.92
		l-14.76-74.91c-0.02-0.14-0.02-0.29-0.05-0.43c-0.31-1.98-0.47-4.01-0.47-6.03c0-20.95,17.04-37.99,37.99-37.99
		c18.56,0,34.31,13.25,37.44,31.51l1.17,5.83l17.02,86.38c1.03,5.24,5.63,8.88,10.78,8.88c0.71,0,1.42-0.07,2.14-0.21
		c5.96-1.17,9.84-6.96,8.67-12.92l-17.03-86.43l-1.09-5.41c-5.01-28.77-29.84-49.63-59.09-49.63c-18.6,0-35.25,8.51-46.26,21.84
		L111.5,27.89h44.39c6.08,0,11-4.92,11-11s-4.92-11-11-11H98.12c-3.29,0-6.41,1.47-8.5,4.01c-2.09,2.54-2.93,5.88-2.29,9.11
		L134.35,257.63z"/>
	<path class="st1" d="M424.28,257.76c1.04,5.23,5.64,8.85,10.78,8.85c0.71,0,1.44-0.07,2.16-0.21c5.96-1.19,9.83-6.98,8.64-12.94
		L397.1,8.85c-1.19-5.96-6.98-9.82-12.94-8.64c-5.96,1.19-9.83,6.98-8.64,12.94L424.28,257.76z"/>
	<path class="st1" d="M390.34,196.18l-15-75.29c-1.19-5.96-6.98-9.83-12.94-8.64c-5.96,1.19-9.83,6.98-8.64,12.94l15.12,75.88
		c0.27,1.83,0.41,3.69,0.41,5.56c0,20.95-17.04,37.99-37.99,37.99c-18.56,0-34.31-13.25-37.44-31.51l-1.17-5.83l-17.02-86.38
		c-1.17-5.96-6.96-9.84-12.92-8.67c-5.96,1.17-9.84,6.96-8.67,12.92l17.03,86.43l1.09,5.42c5.01,28.77,29.84,49.63,59.09,49.63
		c33.08,0,59.99-26.91,59.99-59.99c0-3.18-0.25-6.37-0.75-9.49C390.49,196.81,390.42,196.49,390.34,196.18z"/>
	<path class="st1" d="M524.81,259c-4.64,0-9.23,0.25-13.75,0.73L476.9,86.29h36.73c0.24,0,0.53-0.01,0.77-0.03
		c0.13-0.01,12.82-0.77,26.39,4.61c17.14,6.8,28.01,20.25,32.32,39.98c3.72,17.07,1.75,30.68-5.88,40.45
		c-9.07,11.63-23.65,14.64-25.92,14.71c-6.08,0-11,4.92-11,11s4.92,11,11,11c8.03,0,29.03-5.5,42.72-22.5
		c15.29-18.99,14.19-42.75,10.57-59.35c-7.53-34.5-29.51-49.55-46.63-56.1c-16.56-6.33-31.7-5.92-34.65-5.77h-49.79
		c-3.29,0-6.41,1.47-8.5,4.01c-2.09,2.54-2.93,5.88-2.3,9.11l36.73,186.49c-54.28,15.42-94.15,65.44-94.15,124.6
		c0,71.41,58.09,129.5,129.5,129.5s129.5-58.09,129.5-129.5S596.22,259,524.81,259z M524.81,496c-59.28,0-107.5-48.22-107.5-107.5
		c0-48.47,32.25-89.55,76.42-102.91l20.79,105.54c1.03,5.24,5.63,8.88,10.78,8.88c0.7,0,1.42-0.07,2.14-0.21
		c5.96-1.17,9.84-6.96,8.67-12.92l-20.77-105.45c3.12-0.27,6.28-0.42,9.48-0.42c59.28,0,107.5,48.22,107.5,107.5
		S584.09,496,524.81,496z"/>
	<path class="st1" d="M248.06,293.53c-5.97-1.09-11.71,2.87-12.79,8.85c-4.28,23.46-16.52,45.15-34.47,61.08
		c-18.48,16.4-41.32,25.7-66.05,26.91c-28.7,1.39-56.19-8.45-77.46-27.74c-21.27-19.29-33.76-45.71-35.16-74.39
		c-2.15-43.97,22.27-84.33,62.22-102.83c5.51-2.55,7.91-9.09,5.36-14.6c-2.55-5.51-9.09-7.91-14.6-5.36
		c-23.13,10.71-42.45,27.88-55.88,49.64C5.47,237.37-1.13,263.04,0.16,289.3c1.69,34.55,16.73,66.37,42.35,89.61
		c24.02,21.79,54.64,33.58,86.85,33.58c2.15,0,4.3-0.05,6.46-0.16c29.37-1.43,57.63-12.95,79.58-32.42
		c21.62-19.18,36.36-45.31,41.51-73.59C258,300.34,254.04,294.62,248.06,293.53z"/>
</g>
</svg>
